<mxfile host="app.diagrams.net" agent="Mozilla/5.0 (Windows NT 10.0; Win64; x64) AppleWebKit/537.36 (KHTML, like Gecko) Chrome/134.0.0.0 Safari/537.36" version="26.1.3">
  <diagram name="Page-1" id="xa2ETW6WLZH7pUlQNjPQ">
    <mxGraphModel dx="1518" dy="1714" grid="1" gridSize="10" guides="1" tooltips="1" connect="1" arrows="1" fold="1" page="1" pageScale="1" pageWidth="850" pageHeight="1100" math="0" shadow="0">
      <root>
        <mxCell id="0" />
        <mxCell id="1" parent="0" />
        <mxCell id="PAyLya4S3lvHNLVmTNVt-28" style="edgeStyle=orthogonalEdgeStyle;rounded=0;orthogonalLoop=1;jettySize=auto;html=1;exitX=0.5;exitY=0.5;exitDx=0;exitDy=0;exitPerimeter=0;" parent="1" source="PAyLya4S3lvHNLVmTNVt-1" edge="1">
          <mxGeometry relative="1" as="geometry">
            <mxPoint x="135" y="110" as="targetPoint" />
          </mxGeometry>
        </mxCell>
        <mxCell id="PAyLya4S3lvHNLVmTNVt-1" value="Etudiant" style="shape=umlActor;verticalLabelPosition=bottom;verticalAlign=top;html=1;outlineConnect=0;" parent="1" vertex="1">
          <mxGeometry x="120" y="230" width="30" height="60" as="geometry" />
        </mxCell>
        <mxCell id="PAyLya4S3lvHNLVmTNVt-2" value="Administrateur&lt;div&gt;&lt;br&gt;&lt;/div&gt;" style="shape=umlActor;verticalLabelPosition=bottom;verticalAlign=top;html=1;outlineConnect=0;" parent="1" vertex="1">
          <mxGeometry x="130" y="480" width="30" height="60" as="geometry" />
        </mxCell>
        <mxCell id="PAyLya4S3lvHNLVmTNVt-5" value="se connecter" style="ellipse;whiteSpace=wrap;html=1;" parent="1" vertex="1">
          <mxGeometry x="630" y="60" width="100" height="80" as="geometry" />
        </mxCell>
        <mxCell id="PAyLya4S3lvHNLVmTNVt-6" value="créer compte" style="ellipse;whiteSpace=wrap;html=1;" parent="1" vertex="1">
          <mxGeometry x="320" y="460" width="120" height="80" as="geometry" />
        </mxCell>
        <mxCell id="PAyLya4S3lvHNLVmTNVt-7" value="accéder au profil" style="ellipse;whiteSpace=wrap;html=1;" parent="1" vertex="1">
          <mxGeometry x="560" y="460" width="120" height="80" as="geometry" />
        </mxCell>
        <mxCell id="PAyLya4S3lvHNLVmTNVt-8" value="modifier ses informations" style="ellipse;whiteSpace=wrap;html=1;" parent="1" vertex="1">
          <mxGeometry x="290" y="290" width="120" height="80" as="geometry" />
        </mxCell>
        <mxCell id="PAyLya4S3lvHNLVmTNVt-9" value="interagir avec le chatbot" style="ellipse;whiteSpace=wrap;html=1;" parent="1" vertex="1">
          <mxGeometry x="290" y="120" width="100" height="80" as="geometry" />
        </mxCell>
        <mxCell id="PAyLya4S3lvHNLVmTNVt-11" value="" style="endArrow=none;html=1;rounded=0;entryX=0.04;entryY=0.728;entryDx=0;entryDy=0;entryPerimeter=0;" parent="1" target="PAyLya4S3lvHNLVmTNVt-6" edge="1">
          <mxGeometry width="50" height="50" relative="1" as="geometry">
            <mxPoint x="160" y="520" as="sourcePoint" />
            <mxPoint x="210" y="470" as="targetPoint" />
          </mxGeometry>
        </mxCell>
        <mxCell id="PAyLya4S3lvHNLVmTNVt-12" value="&amp;lt;&amp;lt;include&amp;gt;&amp;gt;" style="html=1;verticalAlign=bottom;labelBackgroundColor=none;endArrow=open;endFill=0;dashed=1;rounded=0;entryX=1;entryY=0;entryDx=0;entryDy=0;" parent="1" source="PAyLya4S3lvHNLVmTNVt-5" target="PAyLya4S3lvHNLVmTNVt-7" edge="1">
          <mxGeometry x="-0.1465" y="-2" width="160" relative="1" as="geometry">
            <mxPoint x="300" y="350" as="sourcePoint" />
            <mxPoint x="460" y="350" as="targetPoint" />
            <mxPoint as="offset" />
          </mxGeometry>
        </mxCell>
        <mxCell id="PAyLya4S3lvHNLVmTNVt-13" value="&amp;lt;&amp;lt;include&amp;gt;&amp;gt;" style="html=1;verticalAlign=bottom;labelBackgroundColor=none;endArrow=open;endFill=0;dashed=1;rounded=0;entryX=0.3;entryY=1;entryDx=0;entryDy=0;entryPerimeter=0;" parent="1" target="PAyLya4S3lvHNLVmTNVt-5" edge="1">
          <mxGeometry x="-0.3788" width="160" relative="1" as="geometry">
            <mxPoint x="430" y="480" as="sourcePoint" />
            <mxPoint x="550" y="581.8823960248162" as="targetPoint" />
            <mxPoint y="-1" as="offset" />
          </mxGeometry>
        </mxCell>
        <mxCell id="PAyLya4S3lvHNLVmTNVt-14" value="&amp;lt;&amp;lt;include&amp;gt;&amp;gt;" style="html=1;verticalAlign=bottom;labelBackgroundColor=none;endArrow=open;endFill=0;dashed=1;rounded=0;entryX=1;entryY=0.5;entryDx=0;entryDy=0;" parent="1" source="PAyLya4S3lvHNLVmTNVt-5" target="PAyLya4S3lvHNLVmTNVt-8" edge="1">
          <mxGeometry x="-0.0167" y="6" width="160" relative="1" as="geometry">
            <mxPoint x="450" y="220" as="sourcePoint" />
            <mxPoint x="610" y="220" as="targetPoint" />
            <mxPoint as="offset" />
          </mxGeometry>
        </mxCell>
        <mxCell id="PAyLya4S3lvHNLVmTNVt-15" value="" style="endArrow=none;html=1;rounded=0;entryX=0;entryY=1;entryDx=0;entryDy=0;" parent="1" target="PAyLya4S3lvHNLVmTNVt-9" edge="1">
          <mxGeometry width="50" height="50" relative="1" as="geometry">
            <mxPoint x="160" y="250" as="sourcePoint" />
            <mxPoint x="210" y="180" as="targetPoint" />
          </mxGeometry>
        </mxCell>
        <mxCell id="PAyLya4S3lvHNLVmTNVt-16" value="" style="endArrow=none;html=1;rounded=0;entryX=0.233;entryY=0.093;entryDx=0;entryDy=0;entryPerimeter=0;" parent="1" target="PAyLya4S3lvHNLVmTNVt-5" edge="1">
          <mxGeometry width="50" height="50" relative="1" as="geometry">
            <mxPoint x="160" y="70" as="sourcePoint" />
            <mxPoint x="640" y="70" as="targetPoint" />
          </mxGeometry>
        </mxCell>
        <mxCell id="PAyLya4S3lvHNLVmTNVt-17" value="" style="endArrow=none;html=1;rounded=0;entryX=0;entryY=0.5;entryDx=0;entryDy=0;" parent="1" target="PAyLya4S3lvHNLVmTNVt-8" edge="1">
          <mxGeometry width="50" height="50" relative="1" as="geometry">
            <mxPoint x="160" y="260" as="sourcePoint" />
            <mxPoint x="210" y="210" as="targetPoint" />
          </mxGeometry>
        </mxCell>
        <mxCell id="PAyLya4S3lvHNLVmTNVt-18" value="&amp;lt;&amp;lt;include&amp;gt;&amp;gt;" style="html=1;verticalAlign=bottom;labelBackgroundColor=none;endArrow=open;endFill=0;dashed=1;rounded=0;entryX=1;entryY=0.5;entryDx=0;entryDy=0;exitX=0.026;exitY=0.728;exitDx=0;exitDy=0;exitPerimeter=0;" parent="1" source="PAyLya4S3lvHNLVmTNVt-5" target="PAyLya4S3lvHNLVmTNVt-9" edge="1">
          <mxGeometry width="160" relative="1" as="geometry">
            <mxPoint x="610" y="120" as="sourcePoint" />
            <mxPoint x="625" y="60" as="targetPoint" />
          </mxGeometry>
        </mxCell>
        <mxCell id="PAyLya4S3lvHNLVmTNVt-21" value="&amp;lt;&amp;lt;include&amp;gt;&amp;gt;" style="html=1;verticalAlign=bottom;labelBackgroundColor=none;endArrow=open;endFill=0;dashed=1;rounded=0;exitX=0.319;exitY=0.054;exitDx=0;exitDy=0;exitPerimeter=0;entryX=0.724;entryY=0.999;entryDx=0;entryDy=0;entryPerimeter=0;" parent="1" target="PAyLya4S3lvHNLVmTNVt-8" edge="1">
          <mxGeometry x="0.0895" y="-3" width="160" relative="1" as="geometry">
            <mxPoint x="568.2800000000002" y="481.31999999999994" as="sourcePoint" />
            <mxPoint x="440" y="220" as="targetPoint" />
            <mxPoint as="offset" />
          </mxGeometry>
        </mxCell>
        <mxCell id="PAyLya4S3lvHNLVmTNVt-25" value="Utilisateur" style="shape=umlActor;verticalLabelPosition=bottom;verticalAlign=top;html=1;outlineConnect=0;" parent="1" vertex="1">
          <mxGeometry x="120" y="20" width="30" height="60" as="geometry" />
        </mxCell>
        <mxCell id="PAyLya4S3lvHNLVmTNVt-27" style="edgeStyle=orthogonalEdgeStyle;rounded=0;orthogonalLoop=1;jettySize=auto;html=1;exitX=0.5;exitY=0.5;exitDx=0;exitDy=0;exitPerimeter=0;" parent="1" source="PAyLya4S3lvHNLVmTNVt-2" target="PAyLya4S3lvHNLVmTNVt-25" edge="1">
          <mxGeometry relative="1" as="geometry">
            <mxPoint x="75" y="510" as="sourcePoint" />
            <mxPoint x="68.48000000000002" y="70.22000000000003" as="targetPoint" />
            <Array as="points">
              <mxPoint x="30" y="510" />
              <mxPoint x="30" y="70" />
            </Array>
          </mxGeometry>
        </mxCell>
        <mxCell id="PAyLya4S3lvHNLVmTNVt-33" value="" style="endArrow=none;html=1;rounded=0;entryX=0.056;entryY=0.693;entryDx=0;entryDy=0;entryPerimeter=0;" parent="1" target="PAyLya4S3lvHNLVmTNVt-7" edge="1">
          <mxGeometry width="50" height="50" relative="1" as="geometry">
            <mxPoint x="160" y="290" as="sourcePoint" />
            <mxPoint x="561.2477049622244" y="506.68368498193354" as="targetPoint" />
          </mxGeometry>
        </mxCell>
        <mxCell id="EoWnzHnyOPH_OsqE4Dfk-1" value="&amp;lt;&amp;lt;include&amp;gt;&amp;gt;" style="html=1;verticalAlign=bottom;labelBackgroundColor=none;endArrow=open;endFill=0;dashed=1;rounded=0;exitX=0.688;exitY=-0.005;exitDx=0;exitDy=0;exitPerimeter=0;" edge="1" parent="1" source="PAyLya4S3lvHNLVmTNVt-5" target="EoWnzHnyOPH_OsqE4Dfk-2">
          <mxGeometry width="160" relative="1" as="geometry">
            <mxPoint x="640" y="30" as="sourcePoint" />
            <mxPoint x="720" y="20" as="targetPoint" />
          </mxGeometry>
        </mxCell>
        <mxCell id="EoWnzHnyOPH_OsqE4Dfk-2" value="vérifier identifiant" style="ellipse;whiteSpace=wrap;html=1;" vertex="1" parent="1">
          <mxGeometry x="750" y="-30" width="120" height="80" as="geometry" />
        </mxCell>
        <mxCell id="EoWnzHnyOPH_OsqE4Dfk-3" value="vérifier mot de passe" style="ellipse;whiteSpace=wrap;html=1;" vertex="1" parent="1">
          <mxGeometry x="760" y="140" width="120" height="80" as="geometry" />
        </mxCell>
        <mxCell id="EoWnzHnyOPH_OsqE4Dfk-4" value="&amp;lt;&amp;lt;include&amp;gt;&amp;gt;" style="html=1;verticalAlign=bottom;labelBackgroundColor=none;endArrow=open;endFill=0;dashed=1;rounded=0;exitX=0.7;exitY=1;exitDx=0;exitDy=0;exitPerimeter=0;" edge="1" parent="1" source="PAyLya4S3lvHNLVmTNVt-5" target="EoWnzHnyOPH_OsqE4Dfk-3">
          <mxGeometry width="160" relative="1" as="geometry">
            <mxPoint x="709" y="70" as="sourcePoint" />
            <mxPoint x="773" y="35" as="targetPoint" />
          </mxGeometry>
        </mxCell>
      </root>
    </mxGraphModel>
  </diagram>
</mxfile>
